# xmcd CD database file
#
# Track frame offsets:
#	150
#	36685
#	62687
#	92322
#	140060
#	154240
#	192065
#	202875
#	230010
#	255500
#	270435
#	312125
#
# Disc length: 4419 seconds
#
# Revision: 0
# Processed by: cddbd v1.5.2PL0 Copyright (c) Steve Scherf et al.
# Submitted via: CDex 1.51
#
DISCID=a111410c
DTITLE=Håkan Broström - New Places
DYEAR=2005
DGENRE=Jazz
TTITLE0=Possibilities
TTITLE1=Grown up
TTITLE2=Storytellers waltz
TTITLE3=New places
TTITLE4=Drifting apart
TTITLE5=To Cornelis
TTITLE6=Suspended moon
TTITLE7=Love her
TTITLE8=Starry nights
TTITLE9=Don't loose that smile
TTITLE10=Three year old cowboy
TTITLE11=Chinese Dinne (with a fortune cookie)
EXTD=YEAR: 2005
EXTT0=
EXTT1=
EXTT2=
EXTT3=
EXTT4=
EXTT5=
EXTT6=
EXTT7=
EXTT8=
EXTT9=
EXTT10=
EXTT11=
PLAYORDER=
